<svg id="Livello_1" data-name="Livello 1" xmlns="http://www.w3.org/2000/svg" xmlns:xlink="http://www.w3.org/1999/xlink" viewBox="0 0 1320 500"><defs><style>.cls-1,.cls-3{fill:none;}.cls-2{clip-path:url(#clip-path);}.cls-3{stroke:#c6c5c5;stroke-linecap:round;stroke-linejoin:round;stroke-width:0.44px;}</style><clipPath id="clip-path"><rect class="cls-1" x="0.11" y="0.14" width="1319.89" height="499.86"/></clipPath></defs><g class="cls-2"><line class="cls-3" x1="408.08" y1="181.21" x2="183.77" y2="-43.11"/><polyline class="cls-3" points="428.2 201.33 476.87 249.99 183.77 543.11"/><polyline class="cls-3" points="115.8 -43.11 408.9 249.99 289.97 368.93"/><polyline class="cls-3" points="234.59 143.64 340.95 249.99 47.85 543.11"/><polyline class="cls-3" points="-20.12 -43.11 272.98 249.99 261.3 261.68"/><line class="cls-3" x1="241.19" y1="281.78" x2="-20.12" y2="543.11"/><polyline class="cls-3" points="69.87 114.85 205.02 249.99 -88.08 543.11"/><polyline class="cls-3" points="-156.05 -43.11 137.06 249.99 56.01 331.05"/><line class="cls-3" x1="21.16" y1="202.05" x2="-224" y2="-43.11"/><polyline class="cls-3" points="41.28 222.18 69.1 249.99 -224 543.11"/><polyline class="cls-3" points="-85.02 163.84 1.13 249.99 -291.97 543.11"/><line class="cls-3" x1="1135.63" y1="543.11" x2="949.64" y2="357.1"/><polyline class="cls-3" points="929.5 336.98 842.53 249.99 1135.63 -43.11"/><polyline class="cls-3" points="1203.6 543.11 910.5 249.99 972.19 188.3"/><line class="cls-3" x1="1203.6" y1="-43.11" x2="992.25" y2="168.24"/><polyline class="cls-3" points="1271.56 543.11 978.46 249.99 1104.98 123.47"/><polyline class="cls-3" points="1178.58 382.17 1046.41 249.99 1339.51 -43.11"/><polyline class="cls-3" points="1407.48 543.11 1114.38 249.99 1141.73 222.64"/><line class="cls-3" x1="1407.48" y1="-43.11" x2="1161.85" y2="202.52"/><line class="cls-3" x1="1475.45" y1="543.11" x2="1243.02" y2="310.66"/><polyline class="cls-3" points="1222.94 290.59 1182.35 249.99 1475.45 -43.11"/><polyline class="cls-3" points="1543.41 543.11 1250.3 249.99 1312.47 187.82"/><polyline class="cls-3" points="1397.36 329.09 1318.27 249.99 1611.37 -43.11"/></g></svg>