<?xml version="1.0" encoding="UTF-8"?>
<svg width="948px" height="1637px" viewBox="0 0 948 1637" version="1.1" xmlns="http://www.w3.org/2000/svg" xmlns:xlink="http://www.w3.org/1999/xlink">
    <title>cerchi</title>
    <defs>
        <rect id="path-1" x="0" y="0" width="948" height="1637"></rect>
    </defs>
    <g id="home-+-focus" stroke="none" stroke-width="1" fill="none" fill-rule="evenodd">
        <g id="Home-focus-Copy-9" transform="translate(-765.000000, -2032.000000)">
            <g id="cerchi" transform="translate(765.000000, 2032.000000)">
                <mask id="mask-2" fill="white">
                    <use xlink:href="#path-1"></use>
                </mask>
                <g id="Mask"></g>
                <g id="Group-27" mask="url(#mask-2)" stroke="#DDA83A" stroke-linecap="round" stroke-linejoin="round" stroke-width="0.442">
                    <g transform="translate(-0.000000, 818.000000) rotate(99.000000) translate(0.000000, -818.000000) translate(-932.000000, -63.000000)">
                        <path d="M1075.62203,905.459914 C1063.25514,969.860869 1003.53409,1018.68187 931.774792,1018.68187 C851.041155,1018.68187 785.622033,956.915761 785.622033,880.662778 C785.622033,804.443208 851.041155,742.681871 931.774792,742.681871 C1003.53409,742.681871 1063.25514,791.4981 1075.62203,855.899055" id="Stroke-1"></path>
                        <path d="M843.588584,633.668365 C871.501764,624.713144 901.392486,619.848048 932.512217,619.848048 C1085.49607,619.848048 1209.52992,737.165265 1209.52992,881.831305 C1209.52992,1026.53083 1085.49607,1143.84805 932.512217,1143.84805 C779.52331,1143.84805 655.529919,1026.53083 655.529919,881.831305 C655.529919,784.32847 711.882275,699.234739 795.43974,654.147691" id="Stroke-5"></path>
                        <path d="M1295.91886,1023.86707 C1310.69825,980.317635 1318.6011,933.244697 1318.2298,884.063027 C1316.53013,658.927689 1142.22154,475.001936 928.902842,473.301953 C715.627255,471.602313 544.070199,652.771788 545.769876,877.907126 C547.469821,1103.07786 721.783156,1286.9986 935.058743,1288.69824 C1084.06087,1289.88567 1212.65403,1201.86189 1276.05786,1071.95712" id="Stroke-9" transform="translate(931.999835, 881.000097) rotate(-82.000000) translate(-931.999835, -881.000097) "></path>
                        <path d="M507.962289,1195.66402 C606.658989,1314.55309 759.993712,1390.92402 932.244712,1390.92402 C1229.93437,1390.92402 1471.26496,1162.80169 1471.26496,881.40967 C1471.26496,600.046355 1229.93437,371.924024 932.244712,371.924024 C634.595551,371.924024 393.26496,600.046355 393.26496,881.40967 C393.26496,982.106759 424.147541,1075.96152 477.489721,1154.97369" id="Stroke-13"></path>
                        <path d="M270.427824,778.228233 C322.169381,477.022711 598.571562,247.075976 931.717321,247.075976 C1301.76058,247.075976 1601.73504,530.71333 1601.73504,880.559222 C1601.73504,1230.43862 1301.76058,1514.07598 931.717321,1514.07598 C561.714563,1514.07598 261.73504,1230.43862 261.73504,880.559222 C261.73504,862.780427 262.51977,845.17875 264.048728,827.754191" id="Stroke-17"></path>
                        <path d="M208.801782,557.077675 C337.411003,301.503952 613.136008,124.848048 932.512198,124.848048 C1374.9026,124.848048 1733.52992,463.775489 1733.52992,881.8313 C1733.52992,1299.92061 1374.9026,1638.84805 932.512198,1638.84805 C490.162301,1638.84805 131.529919,1299.92061 131.529919,881.8313 C131.529919,783.274944 151.454222,689.130559 187.723035,602.77651" id="Stroke-21"></path>
                        <path d="M3.16992163,953.994442 C42.4242865,1406.42643 443.28265,1762 931.977213,1762 C1446.71982,1762 1864,1367.55382 1864,880.983247 C1864,394.44139 1446.71982,1.41409046e-12 931.977213,1.41409046e-12 C417.275114,1.41409046e-12 -3.23872546e-13,394.44139 -3.23872546e-13,880.983247 C-3.23872546e-13,888.742451 0.111402996,896.429856 0.298762581,904.155553" id="Stroke-25"></path>
                    </g>
                </g>
            </g>
        </g>
    </g>
</svg>